# xmcd
#
# Track frame offsets:
# 150
# 41387
# 51255
# 59342
# 73872
# 83755
# 101907
# 115405
# 128090
# 136315
# 149735
# 162720
# 174187
# 182112
# 191367
# 201800
# 213565
# 222495
# 233235
# 242260
#
# Disc length: 3326 seconds
#
#
# Revision: 0
# Processed by: cddbd v1.5.1PL2 Copyright (c) Steve Scherf et al.
# Submitted via: FreeRIP 2.945 
#
DISCID=330cfc14
DTITLE=Wendy Bagwell and The Sunliters - The Gift Box Collection [CD 1)
DYEAR=1998
DGENRE=Gospel
TTITLE0=Wilbur Wingate (Story)
TTITLE1=Who's That Man
TTITLE2=Let It Shine
TTITLE3=Vacation In Heaven
TTITLE4=Geraldine's Operation (Story)
TTITLE5=I Firmly Promise You
TTITLE6=The Next You See Me
TTITLE7=After Awhile
TTITLE8=Lay Your Burdens Down
TTITLE9=Old Bud Womack Died (Story)
TTITLE10=Coat of Many Colors
TTITLE11=The Desert Shall Bloom
TTITLE12=Miracle Worker
TTITLE13=I Want to Tag Along
TTITLE14=He Showed Me Mercy
TTITLE15=There is a Fountain
TTITLE16=That's the Thing He Wants Us to Do
TTITLE17=I've Been Everywhere
TTITLE18=Oh, Come Angel Band
TTITLE19=Will You Meet Me Over Yonder
EXTD=Homeland Records
EXTT0=
EXTT1=
EXTT2=
EXTT3=
EXTT4=
EXTT5=
EXTT6=
EXTT7=
EXTT8=
EXTT9=
EXTT10=
EXTT11=
EXTT12=
EXTT13=
EXTT14=
EXTT15=
EXTT16=
EXTT17=
EXTT18=
EXTT19=
PLAYORDER=
